# xmcd
#
# Track frame offsets:
#	150
#	13550
#	22690
#	35500
#	63000
#	84095
#	103040
#	115460
#	126745
#	139675
#	153360
#	169180
#	186620
#	195520
#
# Disc length: 2861 seconds
#
# Revision: 0
# Processed by: cddbd v1.5.1PL0 Copyright (c) Steve Scherf et al.
# Submitted via: dBpowerAMP V4.0
#
DISCID=b40b2b0e
DTITLE=Skywave - Synthstatic
DYEAR=2003
DGENRE=Shoegazer
TTITLE0=Tsunami
TTITLE1=Here She Comes
TTITLE2=Don't Say Slow
TTITLE3=Nothing Left To Say
TTITLE4=Over And Over
TTITLE5=Fire
TTITLE6=Wear This Dress
TTITLE7=Angela's An Angel
TTITLE8=Knife
TTITLE9=Adore
TTITLE10=I Believe
TTITLE11=Life To Take Your Hand
TTITLE12=Kill Me Dead
TTITLE13=Kiss
EXTD=
EXTT0=
EXTT1=
EXTT2=
EXTT3=
EXTT4=
EXTT5=
EXTT6=
EXTT7=
EXTT8=
EXTT9=
EXTT10=
EXTT11=
EXTT12=
EXTT13=
PLAYORDER=
